<svg width="100%" min-height="0" viewBox="0 0 647 201" fill="none"
    xmlns="http://www.w3.org/2000/svg">
    <g id="Funtagg Logo">
        <g id="1">
            <path id="bottom" d="M549.078 52.2C559.378 68.7 560.878 105.2 549.078 124.7" stroke="#59595C" stroke-width="8" stroke-linecap="round" />
        </g>
        <g id="2">
            <path id="bottom_2" d="M579.878 38.5C595.878 66.5 596.378 110.5 579.878 139.2" stroke="#59595C" stroke-width="8" stroke-linecap="round" />
        </g>
        <g id="3">
            <path id="bottom_3" d="M613.878 23.2C632.678 53.7 634.378 119.2 613.878 154.2" stroke="#59595C" stroke-width="8" stroke-linecap="round" />
        </g>
        <g id="Text">
            <path id="Vector" d="M71.4778 86.1L75.1778 67.5C75.1778 67.5 91.0778 71.5 107.678 71.5C111.978 61.2 113.578 53.9 115.078 43C67.6778 38.7 49.2778 29.2 49.2778 29.2L18.3778 156.2L54.9778 167.2L65.8778 114.8L92.9778 119.2C92.9778 119.2 97.0778 99.9 98.5778 90.4C84.2778 89.8 71.4778 86.1 71.4778 86.1Z" fill="#DD187A" stroke="#293E84" stroke-width="3" />
            <path id="Vector_2" d="M169.578 95.7L141.678 101.5C141.678 101.5 136.278 143 134.278 151.8C131.278 157.2 123.678 156.2 122.978 152.6C123.978 138.8 131.278 98.1 131.278 98.1L103.778 100.1C103.778 100.1 90.8778 158.4 95.1778 166.6C103.178 182 129.778 177.6 136.278 170.9C136.278 169.9 139.578 177.8 139.578 177.8L164.578 167.4C164.578 167.4 161.578 160.6 162.578 151.9C165.078 130.6 169.578 95.7 169.578 95.7Z" fill="#DD187A" stroke="#293E84" stroke-width="3" />
            <path id="Vector_3" d="M201.778 100V92.7C201.778 92.7 186.978 98 175.978 100C175.978 126.5 172.678 158 170.478 172.8H171.078C183.278 172.8 188.178 172.8 198.578 170.3C199.578 159.5 203.278 133.4 203.278 119.3C203.278 119.3 213.078 109.7 215.078 117C215.078 133.6 210.578 168.3 210.578 168.3L238.878 163.8C238.878 163.8 242.878 125.9 242.878 102.5C238.778 78.1 209.478 92.7 201.778 100Z" fill="#DD187A" stroke="#293E84" stroke-width="3" />
            <path id="Vector_4" d="M319.778 25.2L228.778 41.2L226.778 69.7L254.278 65.2L249.078 162L284.778 155.2L288.278 58.7L316.078 54L319.778 25.2Z" fill="#DD187A" stroke="#293E84" stroke-width="3" />
            <path id="Vector_5" d="M357.578 115.7C357.578 114.4 357.778 95.5 357.578 86.2C357.578 86.2 357.578 72.7 342.578 69.7C322.078 67.7 294.078 87.5 294.078 87.5C294.078 87.5 301.378 99.1 304.278 103.4L304.378 103.3C307.078 101.1 312.978 96.3 319.878 92.7C323.478 90.8 328.378 90.7 330.178 94.2C331.178 96.2 330.578 99.9 330.178 100C304.378 101.3 294.078 120.1 293.278 126.2C289.678 153.9 310.578 151.8 312.678 151.8C330.978 151 338.478 142 338.478 142C341.478 145.1 343.378 146.4 347.778 147.9C347.778 147.9 360.778 135.6 364.678 130.3C356.978 127 357.578 121.1 357.578 115.7ZM328.478 127.5C328.178 128.6 323.078 131 321.378 130.2C318.078 128.8 317.578 124.5 318.978 121.9C318.978 121.9 321.378 117.3 328.378 116.2C328.978 116.2 328.478 127.5 328.478 127.5Z" fill="#DD187A" stroke="#293E84" stroke-width="3" />
            <path id="Vector_6" d="M418.078 114.5C411.678 114.5 398.278 115.4 398.278 114.2C398.278 112.7 410.578 113 417.678 111.5C436.278 106.7 441.378 94.5 433.778 82.2C434.478 82.4 441.178 83.4 444.078 80.1C442.778 76 434.878 61 434.878 61C434.878 61 423.078 67.6 415.878 65.3C402.478 61 392.578 64 392.578 64C392.578 64 383.578 66.1 378.278 69.8C364.478 79.6 362.378 100 378.278 108.3C363.478 117.9 369.978 134.6 378.278 134.6H413.778C418.578 139.6 413.778 146.1 409.478 146.1H397.478C392.478 146.1 393.078 140.8 393.078 137.5C378.178 137.5 376.778 137.5 367.178 138.6C365.778 138.8 365.678 151.1 367.178 154.6C371.378 164.6 380.378 165.4 386.178 166.1C398.078 167.6 412.678 167.1 421.678 164.6C451.178 158.3 456.778 114.5 418.078 114.5ZM393.178 87.8C393.178 84.3 396.378 81.4 400.378 81.4C404.378 81.4 407.578 84.3 407.578 87.8C407.578 91.3 404.378 94.2 400.378 94.2C396.378 94.2 393.178 91.3 393.178 87.8Z" fill="#DD187A" stroke="#293E84" stroke-width="3" />
            <path id="Vector_7" d="M500.278 122.8C491.378 120.9 481.278 119.5 481.278 118.2C481.278 116.8 502.278 120.2 502.278 120.2C502.278 120.2 528.878 120.2 514.478 95.9C521.478 99.3 524.478 96.9 524.478 96.9L515.478 76C515.478 76 509.378 79.9 499.478 76C494.778 72.6 472.878 65.8 464.878 68.2C443.578 74.7 444.578 97.8 459.978 108.1C448.578 117 453.578 130.7 462.978 134.4C478.978 138.3 492.478 140.4 497.778 141.9C504.278 147.3 502.278 151.7 497.778 151.7C492.678 151.7 485.878 150.6 481.978 148.7C478.478 147.7 477.678 139.4 477.678 139.4C477.678 139.4 453.378 135.6 452.878 136.4C452.378 137.2 450.878 146.2 453.378 153.2C457.478 162.4 468.678 165.8 476.678 168.5C484.678 171.2 505.978 174.6 515.378 173.3C546.178 166.7 525.678 128.2 500.278 122.8ZM474.978 92.7C474.978 89.2 475.878 86.9 480.278 86.9C484.678 86.9 489.278 91.9 489.278 95.4C489.278 98.9 487.778 100.4 483.978 100.4C480.178 100.4 474.978 96.1 474.978 92.7Z" fill="#DD187A" stroke="#293E84" stroke-width="3" />
        </g>
    </g>

    <defs>
        <style>

      #bottom {
        animation: heartBeat1 2s linear infinite;
      }

      @keyframes heartBeat1 {
        0%,
        24% {
          stroke: #59595c;
        }

        25% {
          stroke: #ffff8e;
        }

        100% {
          stroke: #ffff8e;
        }
      }

      #bottom_2 {
        animation: heartBeat2 2s linear infinite;
      }

      @keyframes heartBeat2 {
        0%,
        49% {
          stroke: #59595c;
        }

        50% {
          stroke: #ffff8e;
        }

        100% {
          stroke: #ffff8e;
        }
      }

      #bottom_3 {
        animation: heartBeat3 2s linear infinite;
      }

      @keyframes heartBeat3 {
        0%,
        74% {
          stroke: #59595c;
        }

        75% {
          stroke: #ffff8e;
        }

        100% {
          stroke: #ffff8e;
        }
      }
        </style>
    </defs>
</svg>